<svg width="165" height="165" viewBox="0 0 165 165" fill="none" xmlns="http://www.w3.org/2000/svg">
<rect width="165" height="165" fill="white"/>
<path d="M43.4641 40.461C42.7181 40.8582 42.0532 41.3921 41.5042 42.0349C40.5529 43.1408 40.0716 44.575 40.1631 46.0312C40.2546 47.4875 40.9117 48.8501 41.9939 49.8281C42.3809 50.1893 44.9862 52.0236 47.7451 53.8799C54.5545 58.4706 57.2625 60.9246 59.9186 64.8996C63.1931 69.7426 65.0262 75.4161 65.205 81.2605C65.5415 87.9163 63.6842 94.4986 59.9186 99.9956C57.2106 104.099 55.7145 105.467 48.2607 110.55C40.5227 115.84 40.2135 116.15 40.0589 118.933C39.9035 119.877 40.0575 120.846 40.4978 121.695C41.0416 122.832 41.946 123.758 43.0703 124.327C44.1946 124.897 45.4756 125.078 46.7138 124.843C48.6996 124.404 49.6541 123.553 51.9003 120.147C57.5487 111.708 59.8957 108.818 63.1971 106.341C66.7297 103.669 70.7651 101.737 75.0615 100.663C77.3057 100.069 77.9759 100.019 82.4424 100.019C86.9088 100.019 87.5751 100.07 89.8233 100.663C95.4341 102.002 100.561 104.88 104.628 108.972C106.253 110.569 107.697 112.482 110.896 117.308C115.874 124.765 116.131 124.998 119.2 124.998C120.929 124.998 121.315 124.898 122.244 124.275C122.929 123.792 123.53 123.199 124.023 122.521C124.675 121.408 124.952 120.114 124.813 118.832C124.673 117.549 124.125 116.345 123.249 115.398C122.94 115.115 119.922 112.972 116.543 110.676C109.761 106.03 107.748 104.173 105.195 100.276C101.599 95.0738 99.7306 88.8709 99.8554 82.5469C99.7246 76.3928 101.609 70.3647 105.221 65.3816C108.47 60.7909 114.66 55.317 120.567 51.7821C123.198 50.2343 124.203 49.2532 124.771 47.8082C125.135 46.7054 125.176 45.5212 124.888 44.396C124.6 43.2708 123.995 42.2519 123.146 41.46C122.269 40.8181 121.241 40.4122 120.162 40.2812C119.083 40.1501 117.988 40.2983 116.982 40.7115C115.692 41.3053 114.97 42.1826 110.973 48.1435C107.491 53.305 105.892 55.292 103.415 57.4337C98.983 61.3459 93.5395 63.9304 87.7078 64.8916C83.4824 65.4818 79.1859 65.3159 75.0186 64.4016C69.628 62.9916 64.69 60.219 60.6786 56.3499C58.2539 54.0017 57.5058 52.9947 53.198 46.389C52.1538 44.7102 51.0173 43.0906 49.7938 41.5378C48.9476 40.7794 47.9043 40.2758 46.7843 40.0853C45.6643 39.8947 44.5133 40.025 43.4641 40.461Z" fill="black"/>
</svg>
