<svg id="_4k-icon" data-name="4k-icon" xmlns="http://www.w3.org/2000/svg" width="77.064" height="50.553" viewBox="0 0 77.064 50.553">
  <path id="Path_4" data-name="Path 4" d="M5.3-423.724a7.436,7.436,0,0,0-5.236,5.266c-.331,1.324-.346,38.232,0,39.541a7.459,7.459,0,0,0,5.627,5.371c1.1.211,64.2.211,65.33,0a7.474,7.474,0,0,0,5.7-5.7c.09-.527.15-7.433.15-19.56,0-20.357.03-19.53-.828-21.215a8.156,8.156,0,0,0-2.9-2.994c-1.866-.993.632-.933-34.862-.918C11.065-423.935,5.964-423.9,5.3-423.724Zm25.5,19.665.03,10.051H36.1v5.417H30.835l-.03,2.663-.045,2.678-3.039.045-3.054.03v-5.417H9.47v-5.763l.918-1.67c2.031-3.671,5.4-9.1,9.434-15.257l1.911-2.889,4.514.03,4.514.045Zm16.611-3.235c.03,5,.09,6.876.211,6.921.105.03,2.768-3.054,5.913-6.876l5.748-6.921h3.536c1.926,0,3.521.045,3.521.09s-2.483,3.069-5.522,6.726c-3.024,3.656-5.507,6.711-5.507,6.8,0,.135,3.355,5.01,11.661,16.957l.286.421H63.38L59.5-383.19l-4.424-6.395c-2.437-3.521-4.469-6.425-4.529-6.455a14.335,14.335,0,0,0-1.625,1.775l-1.535,1.821v9.268l-3.19-.03-3.2-.045-.045-15.272c-.015-8.4,0-15.362.045-15.467.045-.135.843-.181,3.235-.181h3.16Z" transform="translate(0.188 423.941)" fill="#e0e0e0"/>
  <path id="Path_5" data-name="Path 5" d="M107.88-317.049c-2.362,3.822-4.439,7.207-4.634,7.523l-.346.572h9.494v-7.523c0-4.138-.045-7.523-.105-7.523C112.214-323.985,110.242-320.87,107.88-317.049Z" transform="translate(-87.389 339.037)" fill="#e0e0e0"/>
</svg>
