<svg id="ai-icon" xmlns="http://www.w3.org/2000/svg" width="101.911" height="101.911" viewBox="0 0 101.911 101.911">
  <path id="Path_9" data-name="Path 9" d="M97-455.058v8.942H83.277v-12H79.6v12H77.838c-3.111,0-3.332.147-7.374,4.14a35.022,35.022,0,0,0-4.116,4.508,8.44,8.44,0,0,0-.637,3.013l-.147,2.058H53.879v3.675H65.638v13.964H48v3.675H65.638v13.719H53.879v3.675H65.565l.147,2.058a10.239,10.239,0,0,0,.539,2.891c.563,1.127,7.129,7.717,8.28,8.3a8.441,8.441,0,0,0,3.013.637l2.058.147v11.685h3.675v-11.759H97v17.638h3.675v-17.638h13.964v11.759h3.675v-11.685l2.058-.147a10.239,10.239,0,0,0,2.891-.539c1.127-.563,7.717-7.129,8.3-8.28a8.44,8.44,0,0,0,.637-3.013l.147-2.058h11.685v-3.675H132.273v-13.719h17.638v-3.675H132.273v-13.964h11.759V-432.4H132.346l-.147-2.058a8.44,8.44,0,0,0-.637-3.013,35.022,35.022,0,0,0-4.116-4.508c-4.042-3.993-4.263-4.14-7.349-4.14h-1.788v-12h-3.675v12H100.67V-464H97Zm2.131,37.727c1.519,5.928,3.038,11.906,3.405,13.278l.661,2.523h2.376v3.7l-3.846-.074-3.871-.073-.073-1.788-.073-1.764h.759c.931,0,.931-.049-.024-3.626-.416-1.568-.857-3.283-.98-3.8l-.245-.906-4.557.049-4.581.073-1.029,3.969a27.671,27.671,0,0,0-.882,4.091,1.389,1.389,0,0,0,.71.147c.539,0,.563.073.563,1.837v1.862L83.6-397.9l-3.871-.073-.073-1.764-.073-1.764,1.3-.073,1.3-.074,1.249-4.777c.686-2.621,2.2-8.6,3.405-13.3l2.156-8.525,3.7.073,3.7.073Zm19.133-9.015.073,1.788H116.1v23.028h2.229l-.073,1.764-.074,1.788-3.846.073-3.871.074v-3.7h1.96v-23.028h-1.96v-3.7l3.871.073,3.846.073Z" transform="translate(-48 464)" fill="#e0e0e0"/>
  <path id="Path_10" data-name="Path 10" d="M218.6-302.584c-.343,1.127-2.6,10.044-2.6,10.289s.882.318,3.552.318a22.68,22.68,0,0,0,3.552-.147c0-.073-.612-2.572-1.4-5.512L220.336-303h-.808C218.989-303,218.695-302.853,218.6-302.584Z" transform="translate(-174.844 342.441)" fill="#e0e0e0"/>
</svg>
