<svg id="drone-icon" xmlns="http://www.w3.org/2000/svg" width="71" height="65.156" viewBox="0 0 71 65.156">
  <path id="Path_7" data-name="Path 7" d="M5.539-490.74a3.3,3.3,0,0,0-1.138.694,2.86,2.86,0,0,0,.625,4.747c.68.333.874.361,2.512.361H9.314v2.887l-2.04.056a8.655,8.655,0,0,0-2.859.361,6.268,6.268,0,0,0-3.581,3.456,6.936,6.936,0,0,0,0,4.248,6.334,6.334,0,0,0,3.581,3.47c.763.278,1.1.305,6.566.375l5.761.069.666.389a3.757,3.757,0,0,1,1.68,2.235c.111.389.361,1.263.569,1.957.541,1.832.583,1.693-.666,2.152a15.043,15.043,0,0,0-9.217,10.244c-.347,1.277-.361,1.582-.43,5.455l-.056,4.123-.569.069A2.863,2.863,0,0,0,6.4-440.56a2.658,2.658,0,0,0,.847,2.11c.819.819,1.013.861,4.983.861,2.971,0,3.678-.042,4.123-.222a2.91,2.91,0,0,0,1.041-4.692,3.057,3.057,0,0,0-1.763-.93h-.347v-3.581c0-4.039.1-4.706.944-6.413a9.244,9.244,0,0,1,3.914-3.873,9.365,9.365,0,0,1,3.72-.986,2.29,2.29,0,0,1,1.43.569,15.417,15.417,0,0,0,4.081,1.888l1.249.389H35.9c4.664,0,5.386-.028,6.177-.25a14.79,14.79,0,0,0,4.608-2.054c.9-.625,1.36-.666,2.957-.333a9.072,9.072,0,0,1,5.414,3.665c.4.6.639.847.861.847a27.433,27.433,0,0,1,4.8,1.069,7.514,7.514,0,0,0,1.582.4,14.672,14.672,0,0,0-1.124-3.6,13.938,13.938,0,0,0-3.123-4.261,14.087,14.087,0,0,0-6.038-3.665.247.247,0,0,1-.18-.333c.111-.333.777-2.582,1.013-3.443a3.757,3.757,0,0,1,1.68-2.235l.666-.389,5.761-.069c5.469-.069,5.8-.1,6.566-.375a6.334,6.334,0,0,0,3.581-3.47,6.936,6.936,0,0,0,0-4.248,6.268,6.268,0,0,0-3.581-3.456,8.616,8.616,0,0,0-2.846-.361l-2.054-.056v-2.887h1.777c1.638,0,1.832-.028,2.512-.361a2.863,2.863,0,0,0,.819-4.567c-.93-1.055-1-1.055-8.384-1.013-6.219.042-6.385.055-6.927.347a2.824,2.824,0,0,0-1.6,2.679,2.832,2.832,0,0,0,.93,2.11c.694.666,1.249.805,3.165.805h1.735v2.915H15.283v-2.915H17.06a5.275,5.275,0,0,0,2.318-.264,2.977,2.977,0,0,0,1.735-2.721,2.8,2.8,0,0,0-1.6-2.61c-.541-.305-.694-.305-7.01-.333C8.537-490.879,5.858-490.823,5.539-490.74Z" transform="translate(-0.5 490.891)" fill="#e0e0e0"/>
  <path id="Path_8" data-name="Path 8" d="M252.157-170.686a20.508,20.508,0,0,0-9.217,3.276,22.873,22.873,0,0,0-4.608,4.359A17.1,17.1,0,0,0,235-153.543c0,1.721.4,2.512,1.6,3.151l.555.305h34.175l.666-.416a2.641,2.641,0,0,0,1.069-1.166c.458-.874.5-1.693.18-3.776-1.222-8.12-8.231-14.353-17.129-15.255A16.4,16.4,0,0,0,252.157-170.686Zm4.442,6.024a13.476,13.476,0,0,1,8.565,4.969A13.631,13.631,0,0,1,267-156.306l.083.319h-7.635l.347-.833a2.949,2.949,0,0,0-.389-3.276,3.01,3.01,0,0,0-3.512-.763c-.819.375-1.166.861-2.082,2.971l-.819,1.9h-5.8c-5.178,0-5.8-.028-5.8-.222a7.274,7.274,0,0,1,.486-1.263,12.185,12.185,0,0,1,5.872-5.872A14.506,14.506,0,0,1,256.6-164.662Z" transform="translate(-202.449 215.243)" fill="#e0e0e0"/>
</svg>
