<svg id="fpv-icon" xmlns="http://www.w3.org/2000/svg" width="70" height="64.696" viewBox="0 0 70 64.696">
  <path id="Path_1" data-name="Path 1" d="M7.6-491.746a3.3,3.3,0,0,0-1.439,1.289c-.1.192-1.371,3.427-2.824,7.2C1.07-477.393.7-476.311.7-475.707c.027,1.234.521,1.864,2.234,2.865s2.892,1.453,9.335,3.509l6.114,1.947-.014.768a1.921,1.921,0,0,0,1.014,1.864,2.455,2.455,0,0,0,1.919,0c.96-.493,3.18-3.7,4.688-6.785.548-1.1.987-2,1-2.015a2.8,2.8,0,0,1,1.3.548,22.042,22.042,0,0,1-1.014,2.221,27.678,27.678,0,0,1-4.249,6.443,3.21,3.21,0,0,1-3.167,1.261L19-463.165l-.493.535c-1.343,1.494-1.206,2.454.466,3.208a14.42,14.42,0,0,0,3.783.9h.425l.137,1.316.137,1.3-.384.4A1.362,1.362,0,0,0,23-453.624l.329.4-.329.315a1.8,1.8,0,0,0,.315,2.577c.288.192.315.288.233.85-.055.343-.206,1.028-.343,1.522a3.171,3.171,0,0,0,.151,2.838c.754,1.316,2.385,2.344,4.688,2.934a8.5,8.5,0,0,0,3.153.219l2-.082.37.37c2.207,2.207,2.467,9.664.466,13.626l-.4.8H63.8l-.082-.384a23.456,23.456,0,0,0-2.234-5.936,13.073,13.073,0,0,1-2-7.32,18.4,18.4,0,0,1,2.248-8.677,42.054,42.054,0,0,1,3.413-5.675c.822-1.234,1.659-2.522,1.864-2.892l.37-.644-.315-.123C64.264-460,28.705-473.706,27.1-474.323a9.881,9.881,0,0,1-2.234-1.014,41.178,41.178,0,0,1,1.645-4.208,2.416,2.416,0,0,1,1.1.26,5.238,5.238,0,0,0,1.014.329,23.662,23.662,0,0,0,.631-3.523c.219-1.851.137-2.865-.247-3.413a2.235,2.235,0,0,0-2.029-.8,2.449,2.449,0,0,0-1.453,1.165c-.041.151-1.412-.425-5.881-2.454-5.538-2.522-7.868-3.454-9.116-3.66l-.548-.082-1.343,3.482c-.74,1.905-1.371,3.5-1.4,3.523a2.031,2.031,0,0,1-.877-.343c0-.041,2.015-5.346,2.563-6.744C9.021-492.034,8.2-492.006,7.6-491.746ZM6.485-484a1.241,1.241,0,0,1,.425.206c0,.055-.439,1.193-.48,1.261a2.18,2.18,0,0,1-.891-.356,7.835,7.835,0,0,1,.48-1.261C6.032-484.151,6.238-484.083,6.485-484Zm-.493,2.3c.055.055,0,.329-.11.617-.164.4-.274.493-.452.425-.123-.055-.343-.123-.466-.164s-.206-.137-.178-.219c.329-.946.343-.946.727-.85A1.368,1.368,0,0,1,5.991-481.7ZM24.1-480.642a6.961,6.961,0,0,1,1.316.589c0,.123-1.618,4.277-1.686,4.359a17.724,17.724,0,0,1-2.742-1.055,7.436,7.436,0,0,1,.589-1.933c.4-1.014.768-1.974.836-2.152s.178-.3.247-.3A14.743,14.743,0,0,1,24.1-480.642Z" transform="translate(-0.7 491.959)" fill="#e0e0e0"/>
  <path id="Path_2" data-name="Path 2" d="M228.717-488.621a21.346,21.346,0,0,0-6.278,1.48,15.735,15.735,0,0,0-5.62,4.236l-.8.85-.164,1.878c-.1,1.042-.288,2.509-.452,3.276a10.415,10.415,0,0,0-.233,1.426c.027.014,1.892.74,4.153,1.617s11.021,4.236,19.465,7.5,15.408,5.922,15.476,5.936c.178.041.7-1.672,1.042-3.345a22.889,22.889,0,0,0-1.714-14.311c-1.439-3-3.934-5.223-8.17-7.251a35.633,35.633,0,0,0-10.13-3.03A49.29,49.29,0,0,0,228.717-488.621Z" transform="translate(-185.77 489.109)" fill="#e0e0e0"/>
  <path id="Path_3" data-name="Path 3" d="M411.274-302.154a4.108,4.108,0,0,0-.274.8c0,.123,5.511,2.317,7.951,3.18.165.055.288-.123.466-.685a2.573,2.573,0,0,0,.206-.809c-.027-.027-1.782-.713-3.893-1.522s-3.92-1.508-4-1.535C411.617-302.771,411.439-302.538,411.274-302.154Z" transform="translate(-354.756 328.673)" fill="#e0e0e0"/>
</svg>
