<svg id="stream-icon" xmlns="http://www.w3.org/2000/svg" width="71.173" height="53.423" viewBox="0 0 71.173 53.423">
  <path id="Path_6" data-name="Path 6" d="M56.651-409.686a6.806,6.806,0,0,0-5.519,5.345c-.243,1.284-.243,41.1,0,42.381a6.715,6.715,0,0,0,5.675,5.363c1.6.226,57.861.226,59.458,0a6.715,6.715,0,0,0,5.675-5.363c.243-1.284.243-41.114,0-42.381a6.694,6.694,0,0,0-5.675-5.363C114.808-409.912,58.092-409.895,56.651-409.686ZM67.29-393.737a26.741,26.741,0,0,1,21.433,24.661c.087,1.493.069,1.909-.156,2.36a2.108,2.108,0,0,1-2.031,1.267c-1.475,0-2.256-.972-2.256-2.812-.017-6.491-3.731-13.433-9.3-17.424a22.96,22.96,0,0,0-11.905-4.061c-1.892,0-2.933-.66-3.193-2.013a2.287,2.287,0,0,1,1.163-2.2c.5-.278.868-.312,2.516-.226A31.793,31.793,0,0,1,67.29-393.737ZM64.5-382.977a15.737,15.737,0,0,1,13.12,14.266c.121,1.631-.069,2.239-.9,2.9a2.373,2.373,0,0,1-2.569,0c-.677-.538-.92-1.128-1.024-2.673a11.175,11.175,0,0,0-1.388-4.6,14.262,14.262,0,0,0-4.3-4.217,11.713,11.713,0,0,0-4.7-1.336c-2.135,0-3.454-1.631-2.621-3.245C60.712-383.081,61.927-383.376,64.5-382.977Zm.087,11.263a3.5,3.5,0,0,1,2,3.141,3.835,3.835,0,0,1-2.135,2.933,4.174,4.174,0,0,1-2.6-.052,3.327,3.327,0,0,1-1.857-3.731A3.276,3.276,0,0,1,64.582-371.714Z" transform="translate(-50.95 409.852)" fill="#e0e0e0"/>
</svg>
