<svg width="18" height="42" viewBox="0 0 18 42" fill="none" xmlns="http://www.w3.org/2000/svg">
<path d="M10.28 0.0419832C10.2046 0.0682332 10.034 0.146983 9.89942 0.219171C9.76489 0.294639 9.55489 0.393077 9.43349 0.439014C9.09552 0.566983 8.89864 0.685108 8.74442 0.859014C8.54427 1.07886 8.46552 1.30855 8.42614 1.80401L8.39005 2.21745L8.49505 2.39792C8.55411 2.50292 8.59677 2.62761 8.59677 2.68995C8.59677 2.7523 8.60989 2.84745 8.6263 2.90651C8.65255 2.99511 8.64599 3.01808 8.56067 3.10011C8.49505 3.16245 8.46552 3.2248 8.46552 3.29042C8.46552 3.4873 8.81333 4.24855 8.94786 4.35026C8.97739 4.37323 9.03645 4.39292 9.07911 4.39292C9.18739 4.39292 9.21692 4.49464 9.25958 5.02292L9.29895 5.47901L9.15786 5.62011C9.05942 5.71855 9.00036 5.82026 8.9577 5.96136C8.84614 6.31901 8.83302 6.33214 8.47864 6.47323C7.74036 6.76526 6.30645 7.44448 6.03411 7.6348C5.5813 7.94323 5.47302 8.30417 4.84302 11.546C4.41317 13.7543 4.42302 13.7051 4.40661 14.2039C4.3902 14.7912 4.38692 14.8109 4.26552 14.8831C4.09817 14.9815 4.10145 15.1193 4.2688 15.2079C4.3738 15.2604 4.3902 15.3359 4.31802 15.4376C4.29177 15.4737 4.23598 15.5984 4.19661 15.7165C4.13098 15.9068 4.12114 16.0053 4.10802 16.714C4.09817 17.3407 4.08505 17.5146 4.04567 17.5737C3.98989 17.659 3.99645 17.7607 4.08177 18.2562C4.1113 18.417 4.15067 18.6532 4.17036 18.7812C4.19005 18.9059 4.21958 19.0601 4.23599 19.1225C4.24911 19.1815 4.25239 19.5589 4.24255 19.9592C4.22942 20.494 4.23599 20.7368 4.26552 20.8812C4.29505 21.0157 4.30817 21.2914 4.30161 21.754L4.29177 22.43L4.43942 22.7384C4.51817 22.909 4.61989 23.1223 4.65927 23.2175C4.79052 23.516 4.9152 23.6046 5.46317 23.7884C5.73223 23.877 5.97505 23.9426 6.00786 23.9328C6.04067 23.9229 6.07677 23.8835 6.08661 23.8507C6.09645 23.8146 6.14895 23.7556 6.20474 23.7195C6.26708 23.6735 6.29989 23.621 6.29989 23.5685C6.29989 23.4635 6.16536 23.329 6.03739 23.3028C5.95208 23.2864 5.87333 23.2142 5.87333 23.1485C5.87333 23.1387 5.92255 23.1059 5.98161 23.0764C6.03739 23.0468 6.09645 23.0042 6.10958 22.9845C6.15224 22.9221 6.13583 22.5021 6.08661 22.2593C6.06036 22.1346 6.03739 21.9246 6.03739 21.7967C6.03739 21.5276 5.9652 21.3176 5.76833 21.0157L5.64364 20.8254L5.67645 20.54C5.69614 20.3857 5.72239 20.1396 5.7388 19.9953C5.7552 19.8509 5.7913 19.6573 5.81755 19.5654C5.8438 19.4768 5.88317 19.2242 5.90286 19.0109C5.93239 18.6729 5.9488 18.6106 6.0177 18.5384C6.14567 18.3973 6.16864 18.3218 6.16864 18.0101C6.16864 17.7706 6.18833 17.636 6.26708 17.367C6.39833 16.9142 6.46395 16.4646 6.43114 16.2546C6.41474 16.1628 6.40161 16.0118 6.40161 15.9134C6.39833 15.746 6.40489 15.7264 6.55911 15.5656C6.73302 15.3818 6.80192 15.2079 6.76255 15.0635C6.74614 15.0143 6.69036 14.8864 6.63458 14.7781C6.53942 14.5943 6.53286 14.5714 6.56567 14.427C6.5952 14.299 6.6313 14.2432 6.76911 14.1218C6.86099 14.0398 6.9463 13.9742 6.95942 13.9742C6.96927 13.9742 7.00536 14.0595 7.03817 14.1612C7.07099 14.2662 7.14974 14.4664 7.21208 14.6075L7.32692 14.8601L7.25145 15.395C7.2088 15.687 7.16614 16.0709 7.15958 16.2448C7.14645 16.632 7.18255 16.7271 7.4352 16.9568C7.65833 17.1635 7.6813 17.2489 7.55989 17.426L7.46474 17.5606L7.47458 18.056C7.48442 18.5253 7.48114 18.5515 7.41552 18.6007C7.36302 18.6401 7.3302 18.7221 7.29739 18.8993C7.27442 19.0339 7.20223 19.3128 7.13989 19.5195C6.81177 20.5957 6.80848 20.6121 6.81177 21.1273C6.81177 21.5571 6.82161 21.626 6.90036 21.8459C6.97583 22.0559 6.98895 22.1412 6.98895 22.4529C6.98895 23.1223 7.05458 23.8015 7.16942 24.2773C7.4352 25.3864 7.55005 25.9146 7.66161 26.525C7.77317 27.1484 7.86177 27.6176 8.00614 28.3625C8.03895 28.5429 8.08489 28.7923 8.10458 28.9203C8.16692 29.2845 8.28833 29.7767 8.41302 30.177C8.51145 30.4821 8.53114 30.6003 8.53114 30.83C8.53114 31.1614 8.57708 31.624 8.76083 33.1531C8.8002 33.4582 8.84286 33.8356 8.86255 33.9898C8.91505 34.4426 9.17098 35.9257 9.28583 36.4343C9.32192 36.5951 9.38098 36.979 9.4138 37.2875C9.48927 37.9404 9.49583 37.9864 9.61395 38.2226C9.66317 38.321 9.73536 38.5114 9.77802 38.6426C9.81739 38.7739 9.89614 38.9412 9.94864 39.0134L10.0438 39.1479L9.99458 39.3743C9.96505 39.499 9.91255 39.6696 9.87973 39.755C9.84692 39.8435 9.80755 39.9748 9.79442 40.0503C9.77145 40.1914 9.5713 40.6967 9.51223 40.7689C9.49583 40.7918 9.4663 40.9526 9.45317 41.1331C9.4302 41.3923 9.43348 41.4678 9.46958 41.5301C9.53192 41.6285 9.82395 41.8189 10.0438 41.9042C10.3555 42.0223 10.9166 42.0223 11.3596 41.8976C11.5072 41.855 11.6844 41.6778 11.6746 41.5859C11.6713 41.5498 11.6943 41.471 11.7238 41.4153C11.7599 41.3496 11.773 41.2742 11.7599 41.2282C11.75 41.1856 11.7566 41.0707 11.7763 40.9723C11.7993 40.8575 11.8025 40.7623 11.7829 40.6901C11.7533 40.595 11.7599 40.5785 11.8354 40.5293C11.9174 40.4768 11.9174 40.467 11.8977 40.2439C11.8846 40.1159 11.8649 39.919 11.855 39.8075C11.8452 39.6926 11.8452 39.6007 11.8583 39.6007C11.8715 39.6007 11.9535 39.6368 12.0421 39.6828C12.4752 39.9026 12.823 39.6696 13.2036 38.9051C13.4104 38.4851 13.64 37.7862 13.7155 37.3367C13.7844 36.9364 13.8008 36.5492 13.7516 36.4573C13.7254 36.4048 13.6663 35.906 13.6269 35.3679C13.6171 35.2498 13.6269 35.1153 13.6466 35.066C13.663 35.0201 13.7975 34.8889 13.9452 34.7773C14.3094 34.5017 14.3193 34.4787 14.2733 34.1768C14.211 33.806 14.2733 33.386 14.4866 32.7429C14.6474 32.2507 14.8804 31.391 14.9296 31.1023C14.969 30.8923 14.9854 30.3804 14.9722 29.9867C14.969 29.9243 14.969 29.8128 14.9722 29.7406C14.9755 29.6684 14.9657 29.5765 14.9525 29.5371C14.9329 29.4814 14.9525 29.4387 15.0444 29.337L15.1593 29.2057L15.1232 28.9498C15.1035 28.8054 15.0575 28.602 15.0215 28.4937C14.9624 28.3264 14.9525 28.2148 14.9525 27.7718C14.9493 27.4175 14.9657 27.1976 14.9952 27.0992C15.0313 26.981 15.0411 26.4692 15.0444 24.507C15.0477 22.7515 15.0608 21.9575 15.0904 21.6851L15.133 21.3078L15.4808 20.6548C15.763 20.1232 15.8549 19.9854 15.9533 19.9165C16.1043 19.8115 16.2355 19.5687 16.4849 18.9289C16.6654 18.4662 16.8721 18.0298 17.1805 17.4523C17.3577 17.1209 17.3938 16.9207 17.3118 16.737C17.2593 16.6189 17.2593 16.5959 17.3216 16.2809C17.361 16.0971 17.3905 15.8609 17.3905 15.7493C17.3905 15.641 17.4135 15.4803 17.443 15.395C17.4791 15.2932 17.4955 15.1456 17.4922 14.9717C17.489 14.7978 17.5054 14.6534 17.5415 14.5451C17.6235 14.3056 17.5907 13.8068 17.4758 13.482C17.4266 13.3475 17.3511 13.0882 17.3052 12.9078C17.2593 12.7273 17.1477 12.35 17.0558 12.071C16.8721 11.5001 16.7113 10.8373 16.5899 10.1515C16.5046 9.67245 16.2552 8.87511 16.0354 8.37964C15.9697 8.23526 15.9074 8.07776 15.8975 8.02526C15.8582 7.87433 15.4775 7.55933 15.0936 7.36573C14.736 7.18526 14.526 7.09995 13.3546 6.64714C12.6688 6.38464 12.6491 6.3748 12.5769 6.24683C12.5343 6.17464 12.4752 6.03355 12.4457 5.93511C12.403 5.80058 12.344 5.71198 12.2127 5.58401C11.9797 5.35761 11.9666 5.2723 12.1175 4.93105C12.1799 4.78667 12.2488 4.58323 12.2718 4.47495C12.298 4.36667 12.3505 4.21245 12.3899 4.13042C12.4325 4.04839 12.4752 3.90073 12.485 3.8023C12.4982 3.70386 12.5211 3.57589 12.5408 3.52339C12.5999 3.34292 12.6261 3.00495 12.59 2.86058C12.5572 2.73917 12.5605 2.70964 12.6196 2.63089C12.659 2.57839 12.6983 2.49964 12.7082 2.45042C12.7311 2.35855 12.6754 2.05011 12.5736 1.7023C12.5375 1.58417 12.5015 1.41026 12.4883 1.31511C12.4588 1.01651 12.3341 0.799952 12.0191 0.498077C11.691 0.183077 11.481 0.0682332 11.166 0.0255769C10.8477 -0.0137981 10.4408 -0.00723559 10.28 0.0419832ZM15.4086 14.1645C15.4283 14.3285 15.4283 14.3351 15.3365 14.3712C15.1166 14.4565 15.0805 14.486 15.0346 14.6239C14.9952 14.742 14.9952 14.7846 15.0346 14.9028C15.0707 15.0143 15.1035 15.0537 15.215 15.1062C15.2905 15.139 15.3627 15.1882 15.3693 15.2112C15.3791 15.2342 15.3496 15.372 15.3069 15.5196C15.261 15.6706 15.2249 15.8346 15.2249 15.8904C15.2216 15.9462 15.2019 16.0873 15.179 16.2021C15.1363 16.3925 15.1396 16.4253 15.1954 16.5926C15.238 16.714 15.2577 16.865 15.2577 17.0487C15.2577 17.3112 15.2511 17.3342 15.1265 17.5409C14.9788 17.7837 14.9722 17.8198 15.0444 17.9871C15.11 18.1479 15.1068 18.2464 15.0247 18.3514C14.9427 18.4564 14.9066 18.4596 14.8771 18.3612C14.8672 18.3218 14.795 18.1643 14.7229 18.0101C14.5457 17.6295 14.5391 17.5442 14.6605 17.2325C14.9821 16.399 15.0116 16.3006 15.0116 16.0085C15.0116 15.7559 14.9985 15.7034 14.8902 15.4606C14.7032 15.0471 14.6244 14.4795 14.6671 13.8593C14.6835 13.6428 14.7032 13.4426 14.7163 13.4131C14.7294 13.3737 14.8147 13.4426 15.0608 13.6789C15.3693 13.9807 15.3857 14.0004 15.4086 14.1645ZM11.5105 26.0393C11.6811 26.6004 11.9961 28.159 11.9765 28.3296C11.9699 28.3821 11.9633 28.5757 11.9633 28.7562C11.96 29.0581 11.9666 29.0975 12.0519 29.2418C12.134 29.3796 12.1405 29.4125 12.111 29.501C12.0552 29.6651 12.0683 29.839 12.1569 30.0392C12.2554 30.2656 12.2586 30.3607 12.1733 30.6593C12.0847 30.9546 12.0552 31.5584 12.1044 32.0506C12.1372 32.3918 12.1471 32.4345 12.2291 32.5198C12.3046 32.5985 12.3111 32.6248 12.2783 32.6707C12.1044 32.9201 12.0782 32.9989 12.0125 33.4484C11.9765 33.701 11.9371 34.1506 11.9272 34.4492C11.9043 35.0234 11.8682 35.3253 11.8157 35.3778C11.796 35.3975 11.7369 35.3909 11.6582 35.3614C11.5893 35.3318 11.5138 35.3187 11.4941 35.3253C11.4416 35.345 11.4416 35.322 11.5007 34.7773C11.586 33.98 11.5269 32.359 11.4022 32.0703C11.3727 31.9981 11.3333 31.7914 11.3169 31.6109C11.3005 31.4239 11.2579 31.204 11.2185 31.0957C11.1529 30.9185 11.1529 30.8989 11.1988 30.702C11.3399 30.1376 11.3432 29.9539 11.271 28.5921C11.2447 28.1032 11.2119 27.401 11.2021 27.027L11.1791 26.351L11.2874 26.0689C11.3465 25.9146 11.4088 25.7965 11.4219 25.8031C11.435 25.8129 11.4744 25.9179 11.5105 26.0393Z" fill="white"/>
<path d="M5.52558 0.0689065C5.3689 0.101719 5.19622 0.13125 5.14826 0.13125C5.09709 0.13125 4.92122 0.196875 4.75814 0.278907C4.46715 0.42 4.45756 0.429844 4.30407 0.679219C4.07064 1.05328 3.8564 1.50609 3.78285 1.77844C3.69651 2.11313 3.38634 3.71766 3.06337 5.5125C2.91308 6.3525 2.77878 7.05797 2.76599 7.08422C2.7532 7.11047 2.59651 7.16297 2.41744 7.20563C2.03692 7.29422 1.81628 7.4025 1.60204 7.60594C1.28547 7.90781 1.16076 8.24578 1.16076 8.78719C1.16076 8.98078 1.18953 9.56484 1.22471 10.0898C1.32384 11.5763 1.30785 12.9675 1.17355 14.3719C1.11919 14.9527 1.04884 15.4678 0.872965 16.5703C0.805814 16.9936 0.581977 18.4833 0.374128 19.8811L0 22.4241L0.0703488 22.6702C0.249419 23.2969 0.50843 23.6381 0.988081 23.8744C1.25669 24.0056 1.44855 24.1631 1.44855 24.255C1.44855 24.4059 1.80349 26.7291 1.94419 27.4969C2.24477 29.1408 2.41424 29.8266 2.7468 30.7355C2.85872 31.0505 2.97384 31.4016 3.00262 31.5197C3.06017 31.7789 3.06657 32.1956 3.01221 32.4647C2.97384 32.6616 2.97704 32.6813 3.31599 34.2398C3.50465 35.1061 3.81483 36.4481 4.00669 37.2258C4.44157 38.9911 4.48954 39.2667 4.50872 40.1067C4.5343 41.0025 4.52791 41.0156 3.9907 41.347C3.83401 41.4422 3.65174 41.5505 3.58779 41.5833C3.52384 41.6161 3.4439 41.6719 3.41512 41.7047C3.36076 41.767 3.36076 41.7703 3.4439 41.8031C3.49186 41.8195 3.66773 41.8655 3.84041 41.9048C4.09622 41.9606 4.29448 41.977 4.95959 41.9902L5.76541 42.0066V41.7769C5.76541 41.6522 5.70785 40.4873 5.6343 39.1913C5.51279 37.0027 5.5 36.4416 5.56076 36.1397C5.57674 36.0544 5.59273 36.0413 5.65349 36.0544C5.7718 36.0773 5.775 36.1102 5.86134 38.0953C5.94767 40.0838 5.98605 40.7498 6.02122 40.8877C6.10436 41.2027 6.37936 41.4192 6.69913 41.4192C7.03488 41.4192 7.5689 41.0813 7.71279 40.7761C7.83111 40.5267 7.80872 40.343 7.5593 39.5784C7.22355 38.5448 7.09564 37.8788 7.05727 36.9633C7.03808 36.5203 7.07645 35.8148 7.13081 35.5261L7.15 35.4277L7.44419 35.4473C8.03576 35.4867 8.54099 35.6377 9.40436 36.0281C9.69215 36.1561 9.93198 36.2578 9.93517 36.2513C10.0055 36.1594 10.3061 35.6081 10.386 35.4244C10.7794 34.5548 10.8913 33.7673 10.757 32.7961C10.6035 31.6509 10.5907 31.5 10.6323 31.2408C10.6706 31.0045 10.6674 30.9783 10.5172 30.2072C10.2805 28.9997 10.0823 28.2319 9.69855 27.0113C9.16134 25.3116 9.2189 25.7677 9.18692 23.0016C9.15174 19.973 9.13576 19.5825 8.94709 17.3086C8.82878 15.8878 8.79041 14.9658 8.81919 14.2964L8.84157 13.7156H8.95349C9.06541 13.7156 9.06861 13.7156 9.04942 13.837C9.01744 14.0306 9.08779 15.8353 9.13895 16.193C9.19971 16.6097 9.36599 17.2528 9.72413 18.4898C10.2869 20.4159 10.2837 20.393 10.0663 20.9245C9.99913 21.0952 9.97674 21.2166 9.95116 21.6136C9.93517 21.8827 9.8968 22.2141 9.87122 22.3584C9.81366 22.6538 9.58663 23.438 9.46512 23.7628L9.38517 23.9794L9.54186 24.0023C10.0631 24.0778 10.5907 23.7923 10.8177 23.3198C11.0192 22.8966 11.0256 22.7883 10.984 21.023C10.9616 20.1534 10.9233 18.8508 10.8977 18.1289C10.8017 15.3694 10.7826 14.2636 10.773 11.4188C10.7666 8.57719 10.7634 8.47219 10.6994 8.18672C10.514 7.35984 10.2198 7.11047 9.37238 7.05797C8.88314 7.02516 8.76163 6.97594 8.64971 6.75281C8.57936 6.615 8.56657 6.48047 8.45145 4.95141C8.26279 2.45438 8.25 2.32969 8.1093 1.88672C8.00698 1.55859 7.91105 1.36172 7.70959 1.05984C7.51454 0.767813 7.05087 0.308438 6.83343 0.190313C6.47529 -0.00656222 6.05 -0.0459372 5.52558 0.0689065ZM3.0218 12.8264C3.13052 13.2333 3.08256 13.9584 2.92267 14.3128L2.86192 14.4539L2.85872 13.4531C2.85552 12.5081 2.85872 12.4589 2.90988 12.5344C2.93866 12.577 2.98983 12.7083 3.0218 12.8264ZM0.837791 22.5159C0.869767 22.5947 0.936919 22.7456 0.981686 22.8506L1.06802 23.0475L1.22471 22.8867C1.40058 22.7095 1.40058 22.7095 1.34942 23.0344L1.31105 23.2608L1.16395 23.2444C0.904942 23.2116 0.809012 23.1656 0.709884 23.0278C0.594767 22.8638 0.585174 22.6472 0.681105 22.4831C0.716279 22.4273 0.751454 22.3781 0.761047 22.3781C0.77064 22.3781 0.805814 22.4405 0.837791 22.5159Z" fill="white"/>
</svg>
