<svg xmlns="http://www.w3.org/2000/svg" xmlns:xlink="http://www.w3.org/1999/xlink" width="355.581" height="85.172" viewBox="0 0 355.581 85.172">
  <defs>
    <linearGradient id="linear-gradient" x1="0.122" y1="-1.407" x2="0.5" y2="1" gradientUnits="objectBoundingBox">
      <stop offset="0"/>
      <stop offset="1" stop-color="#545454"/>
    </linearGradient>
  </defs>
  <g id="air-borne-logo" transform="translate(-199.097 -628)">
    <path id="Union_1" data-name="Union 1" d="M-3869.918,188.052c-3.206-4.835-4.654-6.748-6.283-8.352a31.12,31.12,0,0,0-14.843-8.327c-2.25-.594-2.922-.646-7.4-.646s-5.146.051-7.4.646a33,33,0,0,0-11.895,5.689c-3.31,2.483-5.663,5.379-11.326,13.835-2.25,3.414-3.206,4.266-5.2,4.707a5.726,5.726,0,0,1-6.232-3.155,4.436,4.436,0,0,1-.44-2.767c.155-2.792.466-3.1,8.223-8.4,7.473-5.093,8.973-6.464,11.688-10.575a30.479,30.479,0,0,0,5.3-18.774,30.945,30.945,0,0,0-5.3-16.394c-2.663-3.982-5.378-6.44-12.206-11.042-2.767-1.862-5.378-3.7-5.766-4.06a5.6,5.6,0,0,1-.491-7.809,6.756,6.756,0,0,1,1.965-1.578,6.04,6.04,0,0,1,6.336,1.086,53.576,53.576,0,0,1,3.413,4.861c4.319,6.621,5.069,7.629,7.5,9.982a32.6,32.6,0,0,0,14.378,8.068,36.1,36.1,0,0,0,12.722.492,31.567,31.567,0,0,0,15.748-7.473c2.483-2.147,4.086-4.138,7.576-9.309,4.009-5.974,4.732-6.852,6.025-7.448a6.375,6.375,0,0,1,6.18.75,6.085,6.085,0,0,1,1.629,6.361c-.569,1.448-1.577,2.43-4.215,3.982-5.921,3.542-12.127,9.024-15.386,13.627a28.274,28.274,0,0,0-5.378,17.2,30.185,30.185,0,0,0,5.353,17.765c2.56,3.905,4.577,5.767,11.377,10.421,3.387,2.3,6.413,4.447,6.723,4.732a6.024,6.024,0,0,1,.776,7.137,7.686,7.686,0,0,1-1.784,1.759c-.931.62-1.319.724-3.051.724C-3864.668,195.758-3864.927,195.525-3869.918,188.052Zm17.793-22.466,15.358-26.6h7.17l15.358,26.6c-3.51,0-6.853.548-8.929-3.048l-10.013-17.339-10.014,17.34c-1.59,2.755-3.926,3.077-6.51,3.077C-3850.493,165.615-3851.3,165.585-3852.125,165.585Zm237.462,0V155.277a6.107,6.107,0,0,1,6.094-6.1h23.2a6.1,6.1,0,0,1-6.1,6.207h-15.912a1.079,1.079,0,0,0-1.077,1.078v2.905h23.084a6.1,6.1,0,0,1-6.1,6.214Zm-32.187,0V145.081a6.108,6.108,0,0,1,6.1-6.1h.119l15.985,17.8V145.081a6.108,6.108,0,0,1,6.1-6.1h.118v20.5a6.107,6.107,0,0,1-6.094,6.1h-.12l-15.984-17.905v11.811a6.107,6.107,0,0,1-6.1,6.1Zm-20.951,0-8.575-14.853h17.619c3.636,0,3.631-5.541,0-5.541h-17.3a5.951,5.951,0,0,1-5.276-3.046l-1.768-3.161h24.345a9.006,9.006,0,0,1,8.974,8.981,9,9,0,0,1-8.974,8.975h-6.866l4.991,8.645Zm-78.822,0a6.107,6.107,0,0,1-6.1-6.1v-.119h24.636a1.992,1.992,0,0,0,0-3.983h-18.541a6.107,6.107,0,0,1-6.1-6.094v-.113h24.636a2,2,0,0,0,0-3.989h-18.542a6.107,6.107,0,0,1-6.094-6.1v-.112h24.636a8.21,8.21,0,0,1,6.416,13.3,8.209,8.209,0,0,1-6.416,13.3Zm-43.918,0-8.575-14.853h17.619c3.636,0,3.631-5.541,0-5.541h-17.3a5.952,5.952,0,0,1-5.277-3.046l-1.768-3.161h24.344a9.006,9.006,0,0,1,8.974,8.981,9,9,0,0,1-8.974,8.975h-6.865l4.99,8.645Zm-16.464,0a6.107,6.107,0,0,1-6.094-6.1V138.985h.118a6.108,6.108,0,0,1,6.1,6.1v20.506Zm99.2,0a8.4,8.4,0,0,1-8.7-8.417V147.4a8.4,8.4,0,0,1,8.7-8.417h15.624a8.4,8.4,0,0,1,8.7,8.417v9.766a8.4,8.4,0,0,1-8.7,8.417Zm-2.489-18.17v9.74q0,2.214,2.489,2.217h15.624q2.49,0,2.489-2.217v-9.74c0-1.476-.829-2.223-2.489-2.223h-15.624C-3709.467,145.193-3710.3,145.939-3710.3,147.415Zm95.634-2.217v-.118a6.108,6.108,0,0,1,6.094-6.1h23.2v.118a6.107,6.107,0,0,1-6.1,6.1Z" transform="translate(4140.049 517.414)" fill="url(#linear-gradient)"/>
  </g>
</svg>
