<svg width="651" height="114" viewBox="0 0 651 114" fill="none" xmlns="http://www.w3.org/2000/svg">
<path fill-rule="evenodd" clip-rule="evenodd" d="M2.01555 2.72512C2.7512 1.86426 3.64206 1.14927 4.64177 0.617421C6.04759 0.0334984 7.58992 -0.140973 9.09066 0.114195C10.5914 0.369362 11.9894 1.04374 13.1232 2.05948C14.7627 4.13898 16.2856 6.30792 17.6847 8.55623C23.457 17.4025 24.4594 18.7511 27.7084 21.8959C33.0835 27.0774 39.7001 30.7904 46.9233 32.6787C52.5073 33.9032 58.2644 34.1254 63.9262 33.3349C71.7405 32.0477 79.0345 28.5865 84.9734 23.3473C88.2919 20.4792 90.4344 17.8182 95.1001 10.9058C100.457 2.92288 101.424 1.74807 103.152 0.952851C104.5 0.399457 105.967 0.201037 107.413 0.376535C108.859 0.552033 110.236 1.09558 111.412 1.95523C112.55 3.01571 113.36 4.38032 113.746 5.88715C114.132 7.39398 114.077 8.97984 113.589 10.4567C112.829 12.392 111.482 13.7058 107.956 15.7787C100.041 20.5125 91.7468 27.8433 87.3925 33.9912C82.5529 40.6645 80.0283 48.7373 80.2035 56.979C80.0362 65.4481 82.5393 73.755 87.3577 80.7219C90.7792 85.9409 93.4762 88.4281 102.564 94.6495C107.091 97.7248 111.135 100.594 111.55 100.974C112.724 102.242 113.458 103.854 113.645 105.572C113.832 107.289 113.461 109.022 112.587 110.512C111.926 111.421 111.12 112.215 110.203 112.862C108.958 113.696 108.441 113.83 106.125 113.83C102.012 113.83 101.668 113.518 94.9972 103.531C90.711 97.0686 88.7758 94.5065 86.5986 92.3681C81.1488 86.8873 74.2792 83.0339 66.7609 81.2404C63.7485 80.4466 62.8557 80.377 56.8708 80.377C50.886 80.377 49.9879 80.4452 46.9808 81.2404C41.2238 82.679 35.8166 85.2651 31.0831 88.8437C26.6593 92.1609 23.5145 96.0314 15.9459 107.333C12.9361 111.894 11.6571 113.034 8.99612 113.622C7.3371 113.937 5.62061 113.694 4.11411 112.931C2.6076 112.169 1.39564 110.929 0.667017 109.406C0.0770074 108.269 -0.129291 106.972 0.078954 105.708C0.286111 101.98 0.700457 101.565 11.069 94.4811C21.0567 87.673 23.0614 85.842 26.69 80.3463C31.7358 72.9847 34.2245 64.1697 33.7735 55.2562C33.534 47.4294 31.0776 39.8313 26.69 33.3456C23.1309 28.0223 19.5023 24.7359 10.3781 18.588C6.68129 16.1021 3.19033 13.6456 2.67177 13.1618C1.22163 11.8521 0.341186 10.0272 0.218567 8.07707C0.0959478 6.1269 0.740877 4.20613 2.01555 2.72512ZM492.732 22.1018C487.642 21.5876 483.372 23.0219 479.922 26.4049L493.958 44.0819C494.277 44.607 494.621 45.1257 494.991 45.6382L504.492 57.736L504.751 57.5324C508.554 54.5463 510.704 50.4591 511.201 45.2708C511.699 40.0831 510.139 34.968 506.988 30.6035L506.99 30.602C504.052 26.8646 497.823 22.616 492.732 22.1018ZM160 38.0894V37.7966C160 33.5029 161.529 29.8272 164.586 26.7695C167.644 23.7119 171.32 22.1831 175.614 22.1831H235.238V22.4758C235.238 26.7696 233.709 30.4452 230.651 33.5029C227.594 36.5605 223.885 38.0894 219.527 38.0894H160ZM178.736 64.3396C177.956 64.3396 177.272 64.5998 176.687 65.1203C176.167 65.6407 175.906 66.2913 175.906 67.072V74.4884H235.238C235.238 78.9773 233.709 82.7831 230.651 85.9058C227.594 88.9635 223.885 90.4923 219.527 90.4923H160V64.0469C160 59.6881 161.529 55.9799 164.586 52.9222C167.644 49.8646 171.32 48.3357 175.614 48.3357H235.238C235.238 52.8246 233.709 56.6304 230.651 59.7531C227.594 62.8108 223.885 64.3396 219.527 64.3396H178.736ZM238.134 22.1831H300.686C306.996 22.1831 312.396 24.46 316.885 29.014C321.439 33.5029 323.716 38.9351 323.716 45.3106C323.716 51.6211 321.439 57.0533 316.885 61.6073C312.396 66.0961 306.996 68.3406 300.686 68.3406H283.023L295.806 90.4923H277.461L255.406 52.3367H300.686C302.898 52.3367 304.622 51.6211 305.858 50.1899C307.094 48.6936 307.712 47.0671 307.712 45.3106C307.712 43.489 307.061 41.8301 305.76 40.3338C304.524 38.8375 302.833 38.0894 300.686 38.0894H256.187C253.325 38.0894 250.722 37.4063 248.38 36.0401C246.038 34.6739 244.152 32.7547 242.72 30.2826L238.134 22.1831ZM329.915 37.7966V38.0894H389.442C393.801 38.0894 397.509 36.5605 400.567 33.5029C403.624 30.4452 405.153 26.7696 405.153 22.4758V22.1831H345.529C341.235 22.1831 337.56 23.7119 334.502 26.7695C331.444 29.8272 329.915 33.5029 329.915 37.7966ZM346.602 65.1203C347.188 64.5998 347.871 64.3396 348.652 64.3396H389.442C393.801 64.3396 397.509 62.8108 400.567 59.7531C403.624 56.6304 405.153 52.8246 405.153 48.3357H345.529C341.235 48.3357 337.56 49.8646 334.502 52.9222C331.444 55.9799 329.915 59.6881 329.915 64.0469V90.4923H389.442C393.801 90.4923 397.509 88.9635 400.567 85.9058C403.624 82.7831 405.153 78.9773 405.153 74.4884H345.822V67.072C345.822 66.2913 346.082 65.6407 346.602 65.1203ZM482.214 74.4884L473.041 90.4923H429.42C425.127 90.4923 421.451 88.9635 418.393 85.9058C415.336 82.8482 413.807 79.1725 413.807 74.8788V22.1831H414.1C418.393 22.1831 422.069 23.7119 425.127 26.7695C428.249 29.8272 429.811 33.5029 429.811 37.7966V71.7561C429.811 72.5367 430.071 73.1873 430.591 73.7077C431.112 74.2282 431.762 74.4884 432.543 74.4884H482.214ZM587.765 65.8804C581.975 65.8804 576.998 63.8311 572.835 59.7326C568.736 55.569 566.687 50.5922 566.687 44.8022C566.687 39.0121 568.736 34.0678 572.835 29.9693C576.998 25.8057 581.975 23.7239 587.765 23.7239H651C651 28.2128 649.471 31.986 646.414 35.0437C643.421 38.1013 639.745 39.6302 635.387 39.6302H587.765C586.139 39.6302 584.87 40.1831 583.959 41.2891C583.114 42.33 582.691 43.501 582.691 44.8022C582.691 46.1033 583.114 47.2743 583.959 48.3152C584.87 49.3561 586.139 49.8765 587.765 49.8765H629.922C632.784 49.8765 635.517 50.4621 638.119 51.6331C640.721 52.739 642.966 54.2353 644.852 56.122C646.739 58.0086 648.235 60.253 649.341 62.8553C650.447 65.3925 651 68.0923 651 70.9548C651 76.7448 648.918 81.7217 644.755 85.8853C640.656 89.9838 635.712 92.0331 629.922 92.0331H566.687C566.687 89.1056 567.37 86.4057 568.736 83.9336C570.168 81.4614 572.087 79.5423 574.494 78.1761C576.901 76.7448 579.503 76.0292 582.301 76.0292H629.922C631.548 76.0292 632.784 75.5088 633.63 74.4679C634.541 73.427 634.996 72.256 634.996 70.9548C634.996 69.6537 634.541 68.4827 633.63 67.4418C632.784 66.4009 631.548 65.8804 629.922 65.8804H587.765ZM559.784 25.4819L560.067 25.6635L523.256 83.0955C520.561 87.3009 516.788 89.93 511.937 90.9829C507.086 92.0358 502.583 91.2302 498.426 88.5661L498.143 88.3845L535.014 30.8583C537.669 26.7157 541.422 24.1179 546.273 23.065C551.124 22.0121 555.627 22.8178 559.784 25.4819Z" fill="url(#paint0_linear_682_137)"/>
<defs>
<linearGradient id="paint0_linear_682_137" x1="0" y1="56.9148" x2="651" y2="56.9148" gradientUnits="userSpaceOnUse">
<stop stop-color="white"/>
<stop offset="1" stop-color="#535353"/>
</linearGradient>
</defs>
</svg>
