<svg width="115" height="117" viewBox="0 0 115 117" fill="none" xmlns="http://www.w3.org/2000/svg">
<path d="M2.40083 3.12075L2.39971 3.1221C1.20767 4.54506 0.602773 6.3931 0.717728 8.27149C0.83268 10.1498 1.65798 11.9045 3.01302 13.1618L3.01897 13.1674L3.01892 13.1674C3.24665 13.3857 4.21217 14.1159 5.62843 15.1402C7.02534 16.1505 8.82007 17.4185 10.6668 18.6943L10.6672 18.6946C19.8162 25.0281 23.5078 28.4501 27.12 34.0005C31.5595 40.7434 34.0446 48.641 34.2878 56.7754C34.743 66.0402 32.2254 75.2036 27.1198 82.8582C25.2941 85.6988 23.8596 87.6187 21.614 89.7085C19.3808 91.7868 16.3538 94.0253 11.3607 97.5222C6.15136 101.179 3.50894 103.07 2.1261 104.521C1.45082 105.229 1.10166 105.807 0.900153 106.414C0.693632 107.036 0.630182 107.719 0.578258 108.679L0.57684 108.705L0.57268 108.731C0.380934 109.927 0.571075 111.153 1.1136 112.228L1.11721 112.235L1.12059 112.242C1.80384 113.709 2.93899 114.901 4.34662 115.633C5.75171 116.364 7.35107 116.597 8.89695 116.298C10.1564 116.011 11.0553 115.601 12.0055 114.72C12.9832 113.813 14.0263 112.397 15.5321 110.052L15.5339 110.049C23.1034 98.4368 26.2903 94.3899 30.7915 90.9221C35.5792 87.2036 41.049 84.5156 46.8734 83.0198C48.3877 82.6084 49.3964 82.3782 50.7871 82.2549C52.1626 82.1328 53.9078 82.1157 56.8956 82.1157C59.8834 82.1157 61.6273 82.1331 63.0022 82.2554C64.3913 82.3789 65.3995 82.6088 66.9148 83.019C74.5257 84.8854 81.4782 88.8931 86.9933 94.5907C89.2115 96.8295 91.1725 99.504 95.458 106.142M2.40083 3.12075L95.0385 106.414M2.40083 3.12075C3.09171 2.29014 3.92661 1.59996 4.8623 1.08503C6.1741 0.530258 7.61071 0.365727 9.00857 0.609916C10.4006 0.853092 11.6999 1.4921 12.7589 2.45599C14.3778 4.56824 15.882 6.7708 17.2647 9.05357L17.2646 9.05363L17.2703 9.0626C23.0451 18.1552 24.0738 19.5844 27.3679 22.8602L27.3686 22.861C32.807 28.2472 39.5028 32.1081 46.814 34.0718L46.8238 34.0744L46.8338 34.0767C52.4795 35.3486 58.3005 35.5794 64.025 34.7583L64.025 34.7584L64.0374 34.7563C71.9495 33.4173 79.3332 29.8172 85.3442 24.3698C88.7144 21.3769 90.8872 18.5957 95.5593 11.4841L95.5601 11.483C98.2434 7.37449 99.812 5.04216 100.923 3.63371C102.014 2.25063 102.631 1.80153 103.401 1.43596C104.666 0.90425 106.042 0.714122 107.398 0.88318C108.747 1.05145 110.034 1.57022 111.136 2.39158C112.194 3.41246 112.949 4.72347 113.31 6.17205C113.673 7.62613 113.623 9.15641 113.167 10.582C112.467 12.4038 111.238 13.6799 107.744 15.7901L107.741 15.7921C99.7774 20.6858 91.4244 28.2645 87.0204 34.6518L2.40083 3.12075ZM95.458 106.142C95.4582 106.142 95.4584 106.143 95.4585 106.143L95.0385 106.414M95.458 106.142C95.4579 106.142 95.4578 106.142 95.4577 106.142L95.0385 106.414M95.458 106.142C97.1274 108.71 98.395 110.647 99.4239 112.112C100.455 113.58 101.229 114.549 101.909 115.194C102.577 115.829 103.143 116.141 103.763 116.306C104.406 116.478 105.135 116.5 106.171 116.5C107.334 116.5 107.985 116.464 108.493 116.339C108.978 116.219 109.359 116.012 109.962 115.597M95.0385 106.414C101.712 116.68 102.057 117 106.171 117C108.488 117 109.006 116.863 110.25 116.005M109.962 115.597C109.96 115.598 109.959 115.599 109.957 115.601L110.25 116.005M109.962 115.597C109.964 115.596 109.965 115.595 109.967 115.594L110.25 116.005M109.962 115.597L110.25 116.005M112.214 113.321C112.21 113.329 112.206 113.336 112.202 113.343L112.636 113.59L112.228 113.301C112.223 113.308 112.218 113.315 112.214 113.321ZM111.242 104.138C111.247 104.143 111.252 104.147 111.256 104.15L111.598 103.786L111.227 104.121C111.232 104.127 111.237 104.132 111.242 104.138ZM86.9775 83.2442C86.9786 83.2459 86.9798 83.2477 86.981 83.2494L87.3957 82.9702L86.9742 83.2391C86.9753 83.2408 86.9764 83.2425 86.9775 83.2442ZM79.7382 58.5663C79.7383 58.5696 79.7384 58.573 79.7384 58.5763L80.2383 58.5659L79.7384 58.5563C79.7384 58.5596 79.7383 58.563 79.7382 58.5663Z" fill="black" stroke="white"/>
</svg>
