<svg width="166" height="42" viewBox="0 0 166 42" fill="none" xmlns="http://www.w3.org/2000/svg">
<path d="M30.092 17.3028C30.092 18.2431 29.9184 18.9719 29.5711 19.4891C29.2239 19.9906 28.7661 20.3589 28.1979 20.594C27.6296 20.8291 26.9824 20.9702 26.2563 21.0172C25.5302 21.0485 24.7883 21.0642 24.0306 21.0642V40.6239H21V3.16892e-06H24.0306C25.546 3.16892e-06 26.7141 0.125385 27.5349 0.37615C28.3557 0.626914 28.9555 0.94037 29.3344 1.31652C29.7132 1.69266 29.9342 2.10016 29.9973 2.53899C30.0605 2.97783 30.092 3.38532 30.092 3.76147V17.3028Z" fill="url(#paint0_linear_23_1238)"/>
<path d="M40.6995 40.6239H37.6688L37.1952 32.8188H35.088L34.6381 40.6239H31.6074L34.6381 4.51376H37.6688L40.6995 40.6239ZM37.0295 30.3739L36.1534 12.0367L35.2537 30.3739H37.0295Z" fill="url(#paint1_linear_23_1238)"/>
<path d="M51.3069 17.3028H48.2762V7.89909C48.2762 7.33487 48.1579 6.94305 47.9211 6.72363C47.6843 6.50421 47.4239 6.3945 47.1397 6.3945C46.8556 6.3945 46.5951 6.50421 46.3584 6.72363C46.1216 6.94305 46.0032 7.33487 46.0032 7.89909C46.0032 9.57607 46.0821 11.1198 46.24 12.5304C46.3978 13.9409 46.603 15.2418 46.8556 16.4329C47.1082 17.624 47.3923 18.7133 47.708 19.7007C48.0237 20.6724 48.3394 21.5658 48.6551 22.3807C48.9076 23.0233 49.1839 23.7678 49.4838 24.6141C49.7995 25.4604 50.0915 26.4713 50.3598 27.6468C50.6282 28.8223 50.8492 30.1936 51.0228 31.7609C51.2122 33.3282 51.3069 35.1541 51.3069 37.2385C51.3069 37.8968 51.1886 38.4688 50.9518 38.9547C50.715 39.4249 50.3993 39.8167 50.0047 40.1302C49.6101 40.4279 49.1602 40.6474 48.6551 40.7884C48.1657 40.9295 47.6606 41 47.1397 41C46.6188 41 46.1058 40.9295 45.6007 40.7884C45.1114 40.6474 44.6694 40.4279 44.2748 40.1302C43.8801 39.8167 43.5644 39.4249 43.3277 38.9547C43.0909 38.4688 42.9725 37.8968 42.9725 37.2385V27.8349H46.0032V37.2385C46.0032 37.8028 46.1216 38.1946 46.3584 38.414C46.5951 38.6334 46.8556 38.7431 47.1397 38.7431C47.4239 38.7431 47.6843 38.6334 47.9211 38.414C48.1579 38.1946 48.2762 37.8028 48.2762 37.2385C48.2762 35.2167 48.1736 33.4457 47.9684 31.9255C47.779 30.3895 47.5343 29.0417 47.2344 27.8819C46.9345 26.7064 46.603 25.6799 46.24 24.8022C45.8927 23.9245 45.5691 23.1174 45.2692 22.3807C44.9693 21.6598 44.6773 20.837 44.3932 19.9123C44.1248 18.9876 43.8801 17.9375 43.6592 16.762C43.454 15.5866 43.2882 14.2701 43.1619 12.8125C43.0357 11.3393 42.9725 9.70146 42.9725 7.89909C42.9725 7.24083 43.0909 6.67661 43.3277 6.20643C43.5644 5.73624 43.8801 5.35226 44.2748 5.05448C44.6694 4.74102 45.1114 4.51376 45.6007 4.37271C46.1058 4.21598 46.6188 4.13762 47.1397 4.13762C47.6606 4.13762 48.1657 4.21598 48.6551 4.37271C49.1602 4.51376 49.6101 4.74102 50.0047 5.05448C50.3993 5.35226 50.715 5.73624 50.9518 6.20643C51.1886 6.67661 51.3069 7.24083 51.3069 7.89909V17.3028Z" fill="url(#paint2_linear_23_1238)"/>
<path d="M62.6721 17.3028H59.6414V7.89909C59.6414 7.33487 59.523 6.94305 59.2862 6.72363C59.0494 6.50421 58.789 6.3945 58.5048 6.3945C58.2207 6.3945 57.9603 6.50421 57.7235 6.72363C57.4867 6.94305 57.3683 7.33487 57.3683 7.89909C57.3683 9.57607 57.4473 11.1198 57.6051 12.5304C57.763 13.9409 57.9682 15.2418 58.2207 16.4329C58.4733 17.624 58.7574 18.7133 59.0731 19.7007C59.3888 20.6724 59.7045 21.5658 60.0202 22.3807C60.2728 23.0233 60.549 23.7678 60.8489 24.6141C61.1646 25.4604 61.4566 26.4713 61.725 27.6468C61.9933 28.8223 62.2143 30.1936 62.3879 31.7609C62.5774 33.3282 62.6721 35.1541 62.6721 37.2385C62.6721 37.8968 62.5537 38.4688 62.3169 38.9547C62.0801 39.4249 61.7644 39.8167 61.3698 40.1302C60.9752 40.4279 60.5253 40.6474 60.0202 40.7884C59.5309 40.9295 59.0257 41 58.5048 41C57.9839 41 57.4709 40.9295 56.9658 40.7884C56.4765 40.6474 56.0345 40.4279 55.6399 40.1302C55.2453 39.8167 54.9296 39.4249 54.6928 38.9547C54.456 38.4688 54.3376 37.8968 54.3376 37.2385V27.8349H57.3683V37.2385C57.3683 37.8028 57.4867 38.1946 57.7235 38.414C57.9603 38.6334 58.2207 38.7431 58.5048 38.7431C58.789 38.7431 59.0494 38.6334 59.2862 38.414C59.523 38.1946 59.6414 37.8028 59.6414 37.2385C59.6414 35.2167 59.5388 33.4457 59.3336 31.9255C59.1441 30.3895 58.8995 29.0417 58.5996 27.8819C58.2996 26.7064 57.9682 25.6799 57.6051 24.8022C57.2578 23.9245 56.9343 23.1174 56.6343 22.3807C56.3344 21.6598 56.0424 20.837 55.7583 19.9123C55.4899 18.9876 55.2453 17.9375 55.0243 16.762C54.8191 15.5866 54.6533 14.2701 54.5271 12.8125C54.4008 11.3393 54.3376 9.70146 54.3376 7.89909C54.3376 7.24083 54.456 6.67661 54.6928 6.20643C54.9296 5.73624 55.2453 5.35226 55.6399 5.05448C56.0345 4.74102 56.4765 4.51376 56.9658 4.37271C57.4709 4.21598 57.9839 4.13762 58.5048 4.13762C59.0257 4.13762 59.5309 4.21598 60.0202 4.37271C60.5253 4.51376 60.9752 4.74102 61.3698 5.05448C61.7644 5.35226 62.0801 5.73624 62.3169 6.20643C62.5537 6.67661 62.6721 7.24083 62.6721 7.89909V17.3028Z" fill="url(#paint3_linear_23_1238)"/>
<path d="M71.7642 6.77065H68.7335V20.3119H71.7642V22.5688H68.7335V38.367H71.7642V40.6239H65.7028V4.51376H71.7642V6.77065Z" fill="url(#paint4_linear_23_1238)"/>
<path d="M80.0986 7.47592C80.0986 7.17814 79.9565 6.99006 79.6724 6.9117C79.404 6.81766 78.5359 6.77065 77.0679 6.77065V38.367C78.5359 38.367 79.404 38.32 79.6724 38.2259C79.9565 38.1319 80.0986 37.936 80.0986 37.6382V7.47592ZM83.1293 37.4501C83.1293 38.2494 82.9556 38.8685 82.6084 39.3073C82.2769 39.7305 81.7797 40.044 81.1167 40.2477C80.801 40.3417 80.4143 40.4201 79.9565 40.4828C79.4988 40.5298 78.8674 40.569 78.0623 40.6003C77.2573 40.616 76.547 40.6239 75.9314 40.6239H74.0372V4.51376C74.6844 4.51376 75.3315 4.5216 75.9787 4.53727C76.6417 4.53727 77.3125 4.54511 77.9913 4.56078C79.3804 4.59213 80.4064 4.694 81.0693 4.8664C81.7481 5.05448 82.2611 5.36009 82.6084 5.78326C82.9556 6.19075 83.1293 6.77848 83.1293 7.54645V37.4501Z" fill="url(#paint5_linear_23_1238)"/>
<path d="M99.7508 4.51376V6.77065H96.7201V40.6239H93.6894V6.77065H90.6587V4.51376H99.7508Z" fill="url(#paint6_linear_23_1238)"/>
<path d="M107.706 4.51376H110.737V40.6239H107.706V23.086H104.676V40.6239H101.645V4.51376H104.676V20.7351H107.706V4.51376Z" fill="url(#paint7_linear_23_1238)"/>
<path d="M119.829 6.77065H116.798V20.3119H119.829V22.5688H116.798V38.367H119.829V40.6239H113.768V4.51376H119.829V6.77065Z" fill="url(#paint8_linear_23_1238)"/>
<path d="M136.072 3.16892e-06V2.25688H133.041V40.6239H130.01V2.25688H126.98V3.16892e-06H136.072Z" fill="url(#paint9_linear_23_1238)"/>
<path d="M144.406 6.77065H141.376V20.3119H144.406V22.5688H141.376V38.367H144.406V40.6239H138.345V4.51376H144.406V6.77065Z" fill="url(#paint10_linear_23_1238)"/>
<path d="M155.014 17.3028H151.983V7.89909C151.983 7.33487 151.865 6.94305 151.628 6.72363C151.391 6.50421 151.131 6.3945 150.846 6.3945C150.562 6.3945 150.302 6.50421 150.065 6.72363C149.828 6.94305 149.71 7.33487 149.71 7.89909C149.71 9.57607 149.789 11.1198 149.947 12.5304C150.105 13.9409 150.31 15.2418 150.562 16.4329C150.815 17.624 151.099 18.7133 151.415 19.7007C151.73 20.6724 152.046 21.5658 152.362 22.3807C152.614 23.0233 152.891 23.7678 153.191 24.6141C153.506 25.4604 153.798 26.4713 154.067 27.6468C154.335 28.8223 154.556 30.1936 154.73 31.7609C154.919 33.3282 155.014 35.1541 155.014 37.2385C155.014 37.8968 154.895 38.4688 154.659 38.9547C154.422 39.4249 154.106 39.8167 153.711 40.1302C153.317 40.4279 152.867 40.6474 152.362 40.7884C151.872 40.9295 151.367 41 150.846 41C150.326 41 149.813 40.9295 149.307 40.7884C148.818 40.6474 148.376 40.4279 147.981 40.1302C147.587 39.8167 147.271 39.4249 147.034 38.9547C146.798 38.4688 146.679 37.8968 146.679 37.2385V27.8349H149.71V37.2385C149.71 37.8028 149.828 38.1946 150.065 38.414C150.302 38.6334 150.562 38.7431 150.846 38.7431C151.131 38.7431 151.391 38.6334 151.628 38.414C151.865 38.1946 151.983 37.8028 151.983 37.2385C151.983 35.2167 151.88 33.4457 151.675 31.9255C151.486 30.3895 151.241 29.0417 150.941 27.8819C150.641 26.7064 150.31 25.6799 149.947 24.8022C149.599 23.9245 149.276 23.1174 148.976 22.3807C148.676 21.6598 148.384 20.837 148.1 19.9123C147.832 18.9876 147.587 17.9375 147.366 16.762C147.161 15.5866 146.995 14.2701 146.869 12.8125C146.742 11.3393 146.679 9.70146 146.679 7.89909C146.679 7.24083 146.798 6.67661 147.034 6.20643C147.271 5.73624 147.587 5.35226 147.981 5.05448C148.376 4.74102 148.818 4.51376 149.307 4.37271C149.813 4.21598 150.326 4.13762 150.846 4.13762C151.367 4.13762 151.872 4.21598 152.362 4.37271C152.867 4.51376 153.317 4.74102 153.711 5.05448C154.106 5.35226 154.422 5.73624 154.659 6.20643C154.895 6.67661 155.014 7.24083 155.014 7.89909V17.3028Z" fill="url(#paint11_linear_23_1238)"/>
<path d="M166 4.51376V6.77065H162.969V40.6239H159.939V6.77065H156.908V4.51376H166Z" fill="url(#paint12_linear_23_1238)"/>
<path d="M10.2704 0.0419832C10.1949 0.0682332 10.0243 0.146983 9.88978 0.219171C9.75525 0.294639 9.54525 0.393077 9.42384 0.439014C9.08587 0.566983 8.889 0.685108 8.73478 0.859014C8.53462 1.07886 8.45587 1.30855 8.4165 1.80401L8.3804 2.21745L8.4854 2.39792C8.54447 2.50292 8.58712 2.62761 8.58712 2.68995C8.58712 2.7523 8.60025 2.84745 8.61665 2.90651C8.6429 2.99511 8.63634 3.01808 8.55103 3.10011C8.4854 3.16245 8.45587 3.2248 8.45587 3.29042C8.45587 3.4873 8.80368 4.24855 8.93822 4.35026C8.96775 4.37323 9.02681 4.39292 9.06947 4.39292C9.17775 4.39292 9.20728 4.49464 9.24994 5.02292L9.28931 5.47901L9.14822 5.62011C9.04978 5.71855 8.99072 5.82026 8.94806 5.96136C8.8365 6.31901 8.82337 6.33214 8.469 6.47323C7.73072 6.76526 6.29681 7.44448 6.02447 7.6348C5.57165 7.94323 5.46337 8.30417 4.83337 11.546C4.40353 13.7543 4.41337 13.7051 4.39697 14.2039C4.38056 14.7912 4.37728 14.8109 4.25587 14.8831C4.08853 14.9815 4.09181 15.1193 4.25915 15.2079C4.36415 15.2604 4.38056 15.3359 4.30837 15.4376C4.28212 15.4737 4.22634 15.5984 4.18697 15.7165C4.12134 15.9068 4.1115 16.0053 4.09837 16.714C4.08853 17.3407 4.0754 17.5146 4.03603 17.5737C3.98025 17.659 3.98681 17.7607 4.07212 18.2562C4.10165 18.417 4.14103 18.6532 4.16072 18.7812C4.1804 18.9059 4.20994 19.0601 4.22634 19.1225C4.23947 19.1815 4.24275 19.5589 4.2329 19.9592C4.21978 20.494 4.22634 20.7368 4.25587 20.8812C4.2854 21.0157 4.29853 21.2914 4.29197 21.754L4.28212 22.43L4.42978 22.7384C4.50853 22.909 4.61025 23.1223 4.64962 23.2175C4.78087 23.516 4.90556 23.6046 5.45353 23.7884C5.72259 23.877 5.9654 23.9426 5.99822 23.9328C6.03103 23.9229 6.06712 23.8835 6.07697 23.8507C6.08681 23.8146 6.13931 23.7556 6.19509 23.7195C6.25744 23.6735 6.29025 23.621 6.29025 23.5685C6.29025 23.4635 6.15572 23.329 6.02775 23.3028C5.94244 23.2864 5.86369 23.2142 5.86369 23.1485C5.86369 23.1387 5.9129 23.1059 5.97197 23.0764C6.02775 23.0468 6.08681 23.0042 6.09994 22.9845C6.14259 22.9221 6.12619 22.5021 6.07697 22.2593C6.05072 22.1346 6.02775 21.9246 6.02775 21.7967C6.02775 21.5276 5.95556 21.3176 5.75869 21.0157L5.634 20.8254L5.66681 20.54C5.6865 20.3857 5.71275 20.1396 5.72915 19.9953C5.74556 19.8509 5.78165 19.6573 5.8079 19.5654C5.83415 19.4768 5.87353 19.2242 5.89322 19.0109C5.92275 18.6729 5.93915 18.6106 6.00806 18.5384C6.13603 18.3973 6.159 18.3218 6.159 18.0101C6.159 17.7706 6.17869 17.636 6.25744 17.367C6.38869 16.9142 6.45431 16.4646 6.4215 16.2546C6.40509 16.1628 6.39197 16.0118 6.39197 15.9134C6.38869 15.746 6.39525 15.7264 6.54947 15.5656C6.72337 15.3818 6.79228 15.2079 6.7529 15.0635C6.7365 15.0143 6.68072 14.8864 6.62494 14.7781C6.52978 14.5943 6.52322 14.5714 6.55603 14.427C6.58556 14.299 6.62165 14.2432 6.75947 14.1218C6.85134 14.0398 6.93665 13.9742 6.94978 13.9742C6.95962 13.9742 6.99572 14.0595 7.02853 14.1612C7.06134 14.2662 7.14009 14.4664 7.20244 14.6075L7.31728 14.8601L7.24181 15.395C7.19915 15.687 7.1565 16.0709 7.14994 16.2448C7.13681 16.632 7.1729 16.7271 7.42556 16.9568C7.64868 17.1635 7.67165 17.2489 7.55025 17.426L7.45509 17.5606L7.46494 18.056C7.47478 18.5253 7.4715 18.5515 7.40587 18.6007C7.35337 18.6401 7.32056 18.7221 7.28775 18.8993C7.26478 19.0339 7.19259 19.3128 7.13025 19.5195C6.80212 20.5957 6.79884 20.6121 6.80212 21.1273C6.80212 21.5571 6.81197 21.626 6.89072 21.8459C6.96619 22.0559 6.97931 22.1412 6.97931 22.4529C6.97931 23.1223 7.04494 23.8015 7.15978 24.2773C7.42556 25.3864 7.5404 25.9146 7.65197 26.525C7.76353 27.1484 7.85212 27.6176 7.9965 28.3625C8.02931 28.5429 8.07525 28.7923 8.09494 28.9203C8.15728 29.2845 8.27869 29.7767 8.40337 30.177C8.50181 30.4821 8.5215 30.6003 8.5215 30.83C8.5215 31.1614 8.56744 31.624 8.75119 33.1531C8.79056 33.4582 8.83322 33.8356 8.8529 33.9898C8.9054 34.4426 9.16134 35.9257 9.27619 36.4343C9.31228 36.5951 9.37134 36.979 9.40415 37.2875C9.47962 37.9404 9.48619 37.9864 9.60431 38.2226C9.65353 38.321 9.72572 38.5114 9.76837 38.6426C9.80775 38.7739 9.8865 38.9412 9.939 39.0134L10.0342 39.1479L9.98493 39.3743C9.9554 39.499 9.9029 39.6696 9.87009 39.755C9.83728 39.8435 9.7979 39.9748 9.78478 40.0503C9.76181 40.1914 9.56165 40.6967 9.50259 40.7689C9.48618 40.7918 9.45665 40.9526 9.44353 41.1331C9.42056 41.3923 9.42384 41.4678 9.45994 41.5301C9.52228 41.6285 9.81431 41.8189 10.0342 41.9042C10.3459 42.0223 10.907 42.0223 11.3499 41.8976C11.4976 41.855 11.6748 41.6778 11.6649 41.5859C11.6617 41.5498 11.6846 41.471 11.7142 41.4153C11.7502 41.3496 11.7634 41.2742 11.7502 41.2282C11.7404 41.1856 11.747 41.0707 11.7667 40.9723C11.7896 40.8575 11.7929 40.7623 11.7732 40.6901C11.7437 40.595 11.7502 40.5785 11.8257 40.5293C11.9077 40.4768 11.9077 40.467 11.8881 40.2439C11.8749 40.1159 11.8552 39.919 11.8454 39.8075C11.8356 39.6926 11.8356 39.6007 11.8487 39.6007C11.8618 39.6007 11.9438 39.6368 12.0324 39.6828C12.4656 39.9026 12.8134 39.6696 13.194 38.9051C13.4007 38.4851 13.6304 37.7862 13.7059 37.3367C13.7748 36.9364 13.7912 36.5492 13.742 36.4573C13.7157 36.4048 13.6567 35.906 13.6173 35.3679C13.6074 35.2498 13.6173 35.1153 13.637 35.066C13.6534 35.0201 13.7879 34.8889 13.9356 34.7773C14.2998 34.5017 14.3096 34.4787 14.2637 34.1768C14.2013 33.806 14.2637 33.386 14.477 32.7429C14.6377 32.2507 14.8707 31.391 14.9199 31.1023C14.9593 30.8923 14.9757 30.3804 14.9626 29.9867C14.9593 29.9243 14.9593 29.8128 14.9626 29.7406C14.9659 29.6684 14.956 29.5765 14.9429 29.5371C14.9232 29.4814 14.9429 29.4387 15.0348 29.337L15.1496 29.2057L15.1135 28.9498C15.0938 28.8054 15.0479 28.602 15.0118 28.4937C14.9527 28.3264 14.9429 28.2148 14.9429 27.7718C14.9396 27.4175 14.956 27.1976 14.9856 27.0992C15.0217 26.981 15.0315 26.4692 15.0348 24.507C15.0381 22.7515 15.0512 21.9575 15.0807 21.6851L15.1234 21.3078L15.4712 20.6548C15.7534 20.1232 15.8452 19.9854 15.9437 19.9165C16.0946 19.8115 16.2259 19.5687 16.4752 18.9289C16.6557 18.4662 16.8624 18.0298 17.1709 17.4523C17.3481 17.1209 17.3842 16.9207 17.3021 16.737C17.2496 16.6189 17.2496 16.5959 17.312 16.2809C17.3513 16.0971 17.3809 15.8609 17.3809 15.7493C17.3809 15.641 17.4038 15.4803 17.4334 15.395C17.4695 15.2932 17.4859 15.1456 17.4826 14.9717C17.4793 14.7978 17.4957 14.6534 17.5318 14.5451C17.6138 14.3056 17.581 13.8068 17.4662 13.482C17.417 13.3475 17.3415 13.0882 17.2956 12.9078C17.2496 12.7273 17.1381 12.35 17.0462 12.071C16.8624 11.5001 16.7017 10.8373 16.5802 10.1515C16.4949 9.67245 16.2456 8.87511 16.0257 8.37964C15.9601 8.23526 15.8977 8.07776 15.8879 8.02526C15.8485 7.87433 15.4679 7.55933 15.084 7.36573C14.7263 7.18526 14.5163 7.09995 13.3449 6.64714C12.6592 6.38464 12.6395 6.3748 12.5673 6.24683C12.5246 6.17464 12.4656 6.03355 12.436 5.93511C12.3934 5.80058 12.3343 5.71198 12.2031 5.58401C11.9701 5.35761 11.957 5.2723 12.1079 4.93105C12.1702 4.78667 12.2392 4.58323 12.2621 4.47495C12.2884 4.36667 12.3409 4.21245 12.3802 4.13042C12.4229 4.04839 12.4656 3.90073 12.4754 3.8023C12.4885 3.70386 12.5115 3.57589 12.5312 3.52339C12.5902 3.34292 12.6165 3.00495 12.5804 2.86058C12.5476 2.73917 12.5509 2.70964 12.6099 2.63089C12.6493 2.57839 12.6887 2.49964 12.6985 2.45042C12.7215 2.35855 12.6657 2.05011 12.564 1.7023C12.5279 1.58417 12.4918 1.41026 12.4787 1.31511C12.4492 1.01651 12.3245 0.799952 12.0095 0.498077C11.6813 0.183077 11.4713 0.0682332 11.1563 0.0255769C10.8381 -0.0137981 10.4312 -0.00723559 10.2704 0.0419832ZM15.399 14.1645C15.4187 14.3285 15.4187 14.3351 15.3268 14.3712C15.107 14.4565 15.0709 14.486 15.0249 14.6239C14.9856 14.742 14.9856 14.7846 15.0249 14.9028C15.061 15.0143 15.0938 15.0537 15.2054 15.1062C15.2809 15.139 15.3531 15.1882 15.3596 15.2112C15.3695 15.2342 15.3399 15.372 15.2973 15.5196C15.2513 15.6706 15.2152 15.8346 15.2152 15.8904C15.212 15.9462 15.1923 16.0873 15.1693 16.2021C15.1267 16.3925 15.1299 16.4253 15.1857 16.5926C15.2284 16.714 15.2481 16.865 15.2481 17.0487C15.2481 17.3112 15.2415 17.3342 15.1168 17.5409C14.9692 17.7837 14.9626 17.8198 15.0348 17.9871C15.1004 18.1479 15.0971 18.2464 15.0151 18.3514C14.9331 18.4564 14.897 18.4596 14.8674 18.3612C14.8576 18.3218 14.7854 18.1643 14.7132 18.0101C14.536 17.6295 14.5295 17.5442 14.6509 17.2325C14.9724 16.399 15.002 16.3006 15.002 16.0085C15.002 15.7559 14.9888 15.7034 14.8806 15.4606C14.6935 15.0471 14.6148 14.4795 14.6574 13.8593C14.6738 13.6428 14.6935 13.4426 14.7067 13.4131C14.7198 13.3737 14.8051 13.4426 15.0512 13.6789C15.3596 13.9807 15.376 14.0004 15.399 14.1645ZM11.5009 26.0393C11.6715 26.6004 11.9865 28.159 11.9668 28.3296C11.9602 28.3821 11.9537 28.5757 11.9537 28.7562C11.9504 29.0581 11.957 29.0975 12.0423 29.2418C12.1243 29.3796 12.1309 29.4125 12.1013 29.501C12.0456 29.6651 12.0587 29.839 12.1473 30.0392C12.2457 30.2656 12.249 30.3607 12.1637 30.6593C12.0751 30.9546 12.0456 31.5584 12.0948 32.0506C12.1276 32.3918 12.1374 32.4345 12.2195 32.5198C12.2949 32.5985 12.3015 32.6248 12.2687 32.6707C12.0948 32.9201 12.0685 32.9989 12.0029 33.4484C11.9668 33.701 11.9274 34.1506 11.9176 34.4492C11.8946 35.0234 11.8585 35.3253 11.806 35.3778C11.7863 35.3975 11.7273 35.3909 11.6485 35.3614C11.5796 35.3318 11.5042 35.3187 11.4845 35.3253C11.432 35.345 11.432 35.322 11.491 34.7773C11.5763 33.98 11.5173 32.359 11.3926 32.0703C11.3631 31.9981 11.3237 31.7914 11.3073 31.6109C11.2909 31.4239 11.2482 31.204 11.2088 31.0957C11.1432 30.9185 11.1432 30.8989 11.1892 30.702C11.3302 30.1376 11.3335 29.9539 11.2613 28.5921C11.2351 28.1032 11.2023 27.401 11.1924 27.027L11.1695 26.351L11.2777 26.0689C11.3368 25.9146 11.3992 25.7965 11.4123 25.8031C11.4254 25.8129 11.4648 25.9179 11.5009 26.0393Z" fill="url(#paint13_linear_23_1238)"/>
<path d="M5.51594 0.0689065C5.35925 0.101719 5.18658 0.13125 5.13861 0.13125C5.08745 0.13125 4.91158 0.196875 4.7485 0.278907C4.45751 0.42 4.44791 0.429844 4.29443 0.679219C4.061 1.05328 3.84675 1.50609 3.77321 1.77844C3.68687 2.11313 3.37669 3.71766 3.05373 5.5125C2.90344 6.3525 2.76914 7.05797 2.75635 7.08422C2.74355 7.11047 2.58687 7.16297 2.4078 7.20563C2.02728 7.29422 1.80664 7.4025 1.59239 7.60594C1.27582 7.90781 1.15111 8.24578 1.15111 8.78719C1.15111 8.98078 1.17989 9.56484 1.21507 10.0898C1.31419 11.5763 1.29821 12.9675 1.1639 14.3719C1.10954 14.9527 1.03919 15.4678 0.863322 16.5703C0.79617 16.9936 0.572333 18.4833 0.364484 19.8811L-0.00964355 22.4241L0.0607053 22.6702C0.239775 23.2969 0.498787 23.6381 0.978438 23.8744C1.24704 24.0056 1.4389 24.1631 1.4389 24.255C1.4389 24.4059 1.79384 26.7291 1.93454 27.4969C2.23512 29.1408 2.4046 29.8266 2.73716 30.7355C2.84908 31.0505 2.96419 31.4016 2.99297 31.5197C3.05053 31.7789 3.05693 32.1956 3.00257 32.4647C2.96419 32.6616 2.96739 32.6813 3.30634 34.2398C3.49501 35.1061 3.80518 36.4481 3.99704 37.2258C4.43193 38.9911 4.47989 39.2667 4.49908 40.1067C4.52466 41.0025 4.51826 41.0156 3.98105 41.347C3.82437 41.4422 3.6421 41.5505 3.57815 41.5833C3.51419 41.6161 3.43425 41.6719 3.40547 41.7047C3.35111 41.767 3.35111 41.7703 3.43425 41.8031C3.48222 41.8195 3.65809 41.8655 3.83076 41.9048C4.08658 41.9606 4.28483 41.977 4.94995 41.9902L5.75576 42.0066V41.7769C5.75576 41.6522 5.69821 40.4873 5.62466 39.1913C5.50315 37.0027 5.49036 36.4416 5.55111 36.1397C5.5671 36.0544 5.58309 36.0413 5.64385 36.0544C5.76216 36.0773 5.76536 36.1102 5.85169 38.0953C5.93803 40.0838 5.9764 40.7498 6.01158 40.8877C6.09472 41.2027 6.36972 41.4192 6.68948 41.4192C7.02524 41.4192 7.55925 41.0813 7.70315 40.7761C7.82146 40.5267 7.79908 40.343 7.54966 39.5784C7.2139 38.5448 7.086 37.8788 7.04762 36.9633C7.02844 36.5203 7.06681 35.8148 7.12117 35.5261L7.14036 35.4277L7.43454 35.4473C8.02611 35.4867 8.53135 35.6377 9.39472 36.0281C9.68251 36.1561 9.92233 36.2578 9.92553 36.2513C9.99588 36.1594 10.2965 35.6081 10.3764 35.4244C10.7697 34.5548 10.8816 33.7673 10.7473 32.7961C10.5938 31.6509 10.5811 31.5 10.6226 31.2408C10.661 31.0045 10.6578 30.9783 10.5075 30.2072C10.2709 28.9997 10.0726 28.2319 9.6889 27.0113C9.15169 25.3116 9.20925 25.7677 9.17728 23.0016C9.1421 19.973 9.12611 19.5825 8.93745 17.3086C8.81914 15.8878 8.78076 14.9658 8.80954 14.2964L8.83193 13.7156H8.94385C9.05576 13.7156 9.05896 13.7156 9.03978 13.837C9.0078 14.0306 9.07815 15.8353 9.12931 16.193C9.19007 16.6097 9.35635 17.2528 9.71449 18.4898C10.2773 20.4159 10.2741 20.393 10.0566 20.9245C9.98948 21.0952 9.9671 21.2166 9.94152 21.6136C9.92553 21.8827 9.88716 22.2141 9.86158 22.3584C9.80402 22.6538 9.57698 23.438 9.45547 23.7628L9.37553 23.9794L9.53222 24.0023C10.0534 24.0778 10.5811 23.7923 10.8081 23.3198C11.0095 22.8966 11.0159 22.7883 10.9744 21.023C10.952 20.1534 10.9136 18.8508 10.888 18.1289C10.7921 15.3694 10.7729 14.2636 10.7633 11.4188C10.7569 8.57719 10.7537 8.47219 10.6898 8.18672C10.5043 7.35984 10.2101 7.11047 9.36274 7.05797C8.8735 7.02516 8.75198 6.97594 8.64007 6.75281C8.56972 6.615 8.55693 6.48047 8.44181 4.95141C8.25315 2.45438 8.24036 2.32969 8.09966 1.88672C7.99733 1.55859 7.9014 1.36172 7.69995 1.05984C7.50489 0.767813 7.04123 0.308438 6.82379 0.190313C6.46565 -0.00656222 6.04036 -0.0459372 5.51594 0.0689065ZM3.01216 12.8264C3.12088 13.2333 3.07291 13.9584 2.91303 14.3128L2.85228 14.4539L2.84908 13.4531C2.84588 12.5081 2.84908 12.4589 2.90024 12.5344C2.92902 12.577 2.98018 12.7083 3.01216 12.8264ZM0.828147 22.5159C0.860124 22.5947 0.927275 22.7456 0.972043 22.8506L1.05838 23.0475L1.21507 22.8867C1.39094 22.7095 1.39094 22.7095 1.33978 23.0344L1.3014 23.2608L1.15431 23.2444C0.895298 23.2116 0.799368 23.1656 0.70024 23.0278C0.585124 22.8638 0.575531 22.6472 0.671461 22.4831C0.706636 22.4273 0.74181 22.3781 0.751403 22.3781C0.760996 22.3781 0.79617 22.4405 0.828147 22.5159Z" fill="url(#paint14_linear_23_1238)"/>
<defs>
<linearGradient id="paint0_linear_23_1238" x1="-0.00964355" y1="21.0033" x2="166" y2="21.0033" gradientUnits="userSpaceOnUse">
<stop stop-color="#0C3FA0"/>
<stop offset="1" stop-color="#DD152E"/>
</linearGradient>
<linearGradient id="paint1_linear_23_1238" x1="-0.00964355" y1="21.0033" x2="166" y2="21.0033" gradientUnits="userSpaceOnUse">
<stop stop-color="#0C3FA0"/>
<stop offset="1" stop-color="#DD152E"/>
</linearGradient>
<linearGradient id="paint2_linear_23_1238" x1="-0.00964355" y1="21.0033" x2="166" y2="21.0033" gradientUnits="userSpaceOnUse">
<stop stop-color="#0C3FA0"/>
<stop offset="1" stop-color="#DD152E"/>
</linearGradient>
<linearGradient id="paint3_linear_23_1238" x1="-0.00964355" y1="21.0033" x2="166" y2="21.0033" gradientUnits="userSpaceOnUse">
<stop stop-color="#0C3FA0"/>
<stop offset="1" stop-color="#DD152E"/>
</linearGradient>
<linearGradient id="paint4_linear_23_1238" x1="-0.00964355" y1="21.0033" x2="166" y2="21.0033" gradientUnits="userSpaceOnUse">
<stop stop-color="#0C3FA0"/>
<stop offset="1" stop-color="#DD152E"/>
</linearGradient>
<linearGradient id="paint5_linear_23_1238" x1="-0.00964355" y1="21.0033" x2="166" y2="21.0033" gradientUnits="userSpaceOnUse">
<stop stop-color="#0C3FA0"/>
<stop offset="1" stop-color="#DD152E"/>
</linearGradient>
<linearGradient id="paint6_linear_23_1238" x1="-0.00964355" y1="21.0033" x2="166" y2="21.0033" gradientUnits="userSpaceOnUse">
<stop stop-color="#0C3FA0"/>
<stop offset="1" stop-color="#DD152E"/>
</linearGradient>
<linearGradient id="paint7_linear_23_1238" x1="-0.00964355" y1="21.0033" x2="166" y2="21.0033" gradientUnits="userSpaceOnUse">
<stop stop-color="#0C3FA0"/>
<stop offset="1" stop-color="#DD152E"/>
</linearGradient>
<linearGradient id="paint8_linear_23_1238" x1="-0.00964355" y1="21.0033" x2="166" y2="21.0033" gradientUnits="userSpaceOnUse">
<stop stop-color="#0C3FA0"/>
<stop offset="1" stop-color="#DD152E"/>
</linearGradient>
<linearGradient id="paint9_linear_23_1238" x1="-0.00964355" y1="21.0033" x2="166" y2="21.0033" gradientUnits="userSpaceOnUse">
<stop stop-color="#0C3FA0"/>
<stop offset="1" stop-color="#DD152E"/>
</linearGradient>
<linearGradient id="paint10_linear_23_1238" x1="-0.00964355" y1="21.0033" x2="166" y2="21.0033" gradientUnits="userSpaceOnUse">
<stop stop-color="#0C3FA0"/>
<stop offset="1" stop-color="#DD152E"/>
</linearGradient>
<linearGradient id="paint11_linear_23_1238" x1="-0.00964355" y1="21.0033" x2="166" y2="21.0033" gradientUnits="userSpaceOnUse">
<stop stop-color="#0C3FA0"/>
<stop offset="1" stop-color="#DD152E"/>
</linearGradient>
<linearGradient id="paint12_linear_23_1238" x1="-0.00964355" y1="21.0033" x2="166" y2="21.0033" gradientUnits="userSpaceOnUse">
<stop stop-color="#0C3FA0"/>
<stop offset="1" stop-color="#DD152E"/>
</linearGradient>
<linearGradient id="paint13_linear_23_1238" x1="-0.00964355" y1="21.0033" x2="166" y2="21.0033" gradientUnits="userSpaceOnUse">
<stop stop-color="#0C3FA0"/>
<stop offset="1" stop-color="#DD152E"/>
</linearGradient>
<linearGradient id="paint14_linear_23_1238" x1="-0.00964355" y1="21.0033" x2="166" y2="21.0033" gradientUnits="userSpaceOnUse">
<stop stop-color="#0C3FA0"/>
<stop offset="1" stop-color="#DD152E"/>
</linearGradient>
</defs>
</svg>
